<?xml version="1.0" encoding="UTF-8"?>
<svg xmlns="http://www.w3.org/2000/svg" viewBox="0 0 1303 921" width="1303" height="921">
<path d="M220.5 331C221.5 331.83 222.5 332.67 223.5 333.5C225.83 333.5 228.17 333.5 230.5 333.5C232.5 334.8 234.5 336.09 236.5 337.39C238.83 337.39 241.17 337.39 243.5 337.39C245.99 339.23 248.24 343.04 251.03 344.47C252.65 345.3 254.75 345.35 256.5 346C260.41 353.83 268.05 357.49 273.58 363.5C273.58 365.67 273.58 367.83 273.58 370C274.5 370.94 276.07 371.7 276.78 372.72C278.51 375.2 278.35 388.14 279.19 392.31C279.89 395.82 282.4 399.05 282.97 402.53C283.91 408.26 281.91 412.52 280.19 417.69C279.18 420.72 279.21 425.74 277.78 428.28C277.15 429.41 275.36 429.89 274.53 431.03C272.7 433.55 272.45 436.78 270.84 439.34C270.21 440.35 269.11 441.03 268.53 442.03C267.42 443.96 267.67 446.39 266.81 448.31C266.14 449.83 264.19 450.41 263 451.5C260.24 454.04 258.5 458.66 254.97 460.47C253.05 461.45 250.9 461.16 249.03 462.53C247.83 463.41 247.42 464.98 246.28 465.78C243.29 467.87 238.72 467.98 235.5 470C231.3 469.16 227.93 469.14 223.69 470.19C216.74 471.9 218.61 475.42 209 473.5C208.17 472.48 207.33 471.47 206.5 470.45C203.83 470.45 201.17 470.45 198.5 470.45C198.21 470.38 197.98 470.81 197.69 470.81C197.05 470.82 196.44 469.84 195.97 469.53C194.01 468.28 191.98 467.58 190.03 466.47C188.44 465.56 187.6 463.35 185.97 462.53C183.61 461.35 179.64 461.07 177 460.5C176.47 459.08 176.23 457.33 175.47 456.03C174.6 454.55 172.77 454.01 171.5 453C168.07 450.28 165.1 446.6 162 443.5C162 435.38 160.62 436.44 156.19 431.31C154.85 429.77 152.36 422.58 152.03 420.47C151.57 417.55 152.43 414.45 151.97 411.53C151.59 409.1 150.62 407.16 151.03 404.53C151.2 403.47 151.94 402.57 151.94 401.5C151.94 400.39 151.11 399.58 151.03 398.47C150.93 396.94 151.74 395.91 151.97 394.47C152.47 391.26 151.55 387.89 152.19 384.69C152.84 381.43 155.16 379.08 156.84 376.34C157.8 374.79 157.58 373.28 158.19 371.69C159.5 368.26 162.36 364.92 164.47 361.97C171.95 351.5 168.5 347.92 183.4 344C183.4 342.5 183.4 341 183.4 339.5C185.83 339.24 187.97 340.3 190.31 339.81C193.88 339.07 197.11 336.04 200.69 335.19C203.15 334.6 205.91 335.59 208.31 334.81C209.19 334.53 209.88 333.64 210.66 333.16C213.9 331.12 216.77 331 220.5 331ZM988.98 334C989.32 336 989.66 338 990 340C984.97 336.64 980.63 335 974.5 335C973.5 336 972.5 337 971.5 338C967.65 338 962.32 338.93 959.53 342.03C955.28 346.75 958.51 347.74 951 351.5C951.33 353.83 951.67 356.17 952 358.5C951 360.5 950 362.5 949 364.5C950.95 367.61 953.96 370.71 955.47 374.03C957.5 378.49 956.62 379.12 960.5 383C966.56 383 967.65 383.96 972.5 387C977.08 384.13 980.26 386.57 985.08 388.21C984 395.16 980.92 406.48 977.14 412.31C973.58 411.59 970.25 411.35 968.5 408C966.83 408.33 965.17 408.67 963.5 409C962.42 407.92 960.76 406.75 960.19 405.31C959.72 404.16 960.08 403.24 959.31 402.19C957.34 399.48 953.01 399.82 950.69 397.81C949.64 396.91 944.57 391.44 944.19 390.31C943.71 388.92 943.99 387.42 943.5 386C942.71 383.7 940.91 381.82 940 379.5C940.58 378.57 941.64 377.46 941.81 376.31C942 375.04 941.26 374.45 941.22 373.34C941.18 372.34 941.83 371.66 941.78 370.66C941.75 369.99 941.14 369.18 941.03 368.47C940.55 365.29 941 361.71 941 358.5C942.71 356.79 945.48 354.12 945.63 351.5C945.74 349.52 944.88 348.68 946.16 346.66C948.13 343.51 950.69 342.62 952.5 339C954.28 338.34 956.27 338.24 957.97 337.47C960.11 336.5 961.61 334.22 963.69 333.19C966.18 331.95 967.92 333.3 970.47 332.97C972.3 332.73 973.71 331.32 975.53 331.03C979.02 330.48 985.78 332.44 988.98 334ZM525 332.5C526.61 336.84 527.56 339.42 525 343.5C525.41 345.39 526.66 346.71 526.97 348.53C527.43 351.28 525.58 353.61 526.03 356.47C526.32 358.29 527.73 359.7 527.97 361.53C528.23 363.47 527.31 364.74 527.03 366.53C526.7 368.65 527.13 371.03 527.5 373C526.25 372.99 524.06 373.46 523.22 372.28C522.26 370.93 523.06 367.68 522.5 366C521.48 362.95 519.01 361.54 517.53 358.97C515.92 356.16 515.13 352.54 514 349.5C511.6 348.3 509.19 347.04 507.03 345.47C504.61 343.7 503.02 340.54 500.31 339.19C496.95 337.51 494.1 339.53 490.53 338.97C480.98 337.47 471.31 337 461.5 337C462.24 340.98 462.62 346.33 461.97 350.47C461.8 351.53 461.06 352.43 461.06 353.5C461.06 354.57 461.8 355.47 461.97 356.53C462.44 359.54 462.28 363.47 462 366.5C461.78 368.95 460.78 370.93 461 373.5C461.2 375.82 462.63 378.2 462.63 380.5C462.63 382.66 461.43 385.36 461 387.5C462.56 389.99 463.99 392.09 463.5 395C467.45 395 470.14 394.89 473.5 397C475.65 392.9 479.32 394.56 482.97 392.47C487.14 390.08 488.74 384.76 492 381.5C491.73 377.49 488.3 368.09 496.5 372C497.01 375.74 494.4 378.84 494.38 382.5C494.32 389.07 499.91 391.59 494 397.5C496.37 401.28 496.37 403.72 494 407.5C495.33 409.5 496.67 411.5 498 413.5C497.15 417.73 496.82 420.98 498 425.23C496.17 425.23 494.33 425.23 492.5 425.23C487.67 421.87 489.65 414.8 490 409.5C486.83 406.33 483.67 403.17 480.5 400C478.82 400.11 477.07 400.94 475.5 400.94C473.75 400.94 472 399.52 470.31 399.19C467.58 398.64 464.64 398.97 462 399.5C460.43 402.8 461 406.78 461 410.5C461 413.06 461.37 415.94 460.97 418.47C460.74 419.91 459.93 420.94 460.03 422.47C460.24 425.54 461.94 430.5 461.94 433.5C461.94 434.58 461.19 435.47 461.03 436.53C460.59 439.45 461.77 442.04 463 444.5C460.1 450.31 459.29 460.59 463.5 466C471.66 466 487.38 467.64 494.5 465C495.5 466 496.5 467 497.5 468C501.23 467.25 504.11 466.21 506.47 462.97C507.05 462.18 507.2 461.14 508.03 460.53C509.66 459.34 512.23 459.49 513.97 458.47C516.69 456.87 517.22 452.87 519.19 450.69C520.43 449.3 522.42 448.74 523.36 447.5C523.36 445.83 523.36 444.17 523.36 442.5C531.31 437.65 525.28 432.42 529.5 427C530.41 427.29 531.11 426.79 531.78 427.72C532.49 428.72 532.05 435.93 532 437.5C531.94 439.4 531.31 440.73 531.03 442.53C530.42 446.43 531.58 450.57 530.97 454.47C530.51 457.42 528.92 459.42 528.19 461.69C527.45 463.96 528 467.13 528 469.5C519.68 471.16 510.05 470 501.5 470C484.17 470 466.83 470 449.5 470C443.5 470 437.5 470 431.5 470C429.56 470 425.41 470.8 423.72 469.78C422.01 468.75 424.45 469.89 423 468.5C423.29 467.59 422.79 466.89 423.72 466.22C425.37 465.04 434.92 467 437.5 467C438.1 464.01 437.48 462.34 437.03 459.47C435.99 452.83 436.44 442.18 440 436.5C439.63 434.63 438.62 433.13 438.19 431.31C437.66 429.09 438.32 426.76 437.97 424.53C437.45 421.2 436.48 418.06 437.03 414.53C437.46 411.81 438.75 409.26 439 406.5C439.35 402.7 437.62 398.85 438.03 395.53C438.33 393.11 439.78 390.97 440 388.5C440.63 381.55 435.99 375.9 440 369.5C437.32 362.66 435.68 360.38 440 353.5C439.69 351.95 438.93 350.12 439.03 348.53C439.36 343.64 441.14 342.49 437.5 338C434.94 338 425.51 338.86 423.72 337.78C422.01 336.75 424.45 337.89 423 336.5C424.24 332.57 426.54 334 430.5 334C436.16 334 441.85 334.18 447.5 334C449.66 333.93 451.39 333.19 453.5 333C458.73 332.52 464.24 333 469.5 333C480.5 333 491.5 333 502.5 333C506.02 333 509.99 333.51 513.47 332.97C517.5 332.34 520.85 331.67 525 332.5ZM1146.5 332C1150.26 336.83 1148.04 340.32 1147 345.5C1148 346.5 1149 347.5 1150 348.5C1148.46 356.21 1147.09 354.67 1151 362.5C1149.06 366.37 1149.5 369.03 1149.5 373C1148.25 372.99 1146.06 373.46 1145.22 372.28C1144.35 371.07 1145.11 368.15 1144.81 366.69C1143.92 362.23 1139.79 359.51 1138.19 355.31C1137.4 353.24 1137.34 350.49 1135.5 349C1133.67 347.52 1130.24 346.08 1128.03 344.47C1125.97 342.96 1124.62 340.34 1122.31 339.19C1119.13 337.6 1116.83 339.47 1113.53 338.97C1112.43 338.8 1111.57 338.2 1110.47 338.03C1106.57 337.42 1102.43 338.58 1098.53 337.97C1093.65 337.2 1088.99 336.5 1084 337.5C1084.33 342.46 1086.94 348.4 1083 352.5C1085.81 360.06 1084 364.92 1084 372.5C1084 378.28 1085.69 381.13 1083 386.5C1084.17 389.33 1085.33 392.17 1086.5 395C1090.15 395 1092.41 395.06 1095.5 397C1099.36 392.24 1100.47 395.05 1104.97 392.47C1107.61 390.95 1109.86 387.42 1111.47 384.97C1112.14 383.94 1113.45 382.44 1113.81 381.31C1115.36 376.53 1109.95 371.59 1117.5 371C1120.45 374.79 1117.65 377.48 1117.03 381.53C1116.2 387.04 1121.63 391.68 1117 396.5C1117.88 400.9 1117.88 404.1 1117 408.5C1117.85 410.17 1118.7 411.83 1119.55 413.5C1119.55 417.49 1119.55 421.48 1119.55 425.47C1117.7 425.47 1115.85 425.47 1114 425.47C1112.91 422.58 1110.64 418.65 1111.03 415.53C1111.3 413.42 1111.98 411.75 1112 409.5C1108.83 406.33 1105.67 403.17 1102.5 400C1096.57 401.19 1097.68 399.85 1092.47 399.03C1089.94 398.63 1087.06 399 1084.5 399C1083.88 402.12 1084.46 405.32 1083.97 408.47C1083 414.67 1082.03 422.06 1083.03 428.47C1083.2 429.57 1083.83 430.43 1083.97 431.53C1084.28 434.03 1082.72 435.97 1083.03 438.47C1083.28 440.48 1084.94 442.48 1084.94 444.5C1084.94 446.5 1083.34 448.55 1083.03 450.53C1082.26 455.46 1083.3 460.93 1085 465.5C1091.49 466.8 1098.83 466 1105.5 466C1109.22 466 1113.2 466.57 1116.5 465C1117.5 466 1118.5 467 1119.5 468C1126.66 466.57 1125.88 464.21 1131.03 460.53C1132.55 459.44 1134.42 459.36 1135.97 458.47C1138.64 456.93 1139.79 453.36 1141.53 451.03C1142.62 449.56 1144.48 448.69 1145.5 447.5C1145.5 445.83 1145.5 444.17 1145.5 442.5C1154.26 436.66 1146.84 432.99 1151.5 427C1152.41 427.29 1153.11 426.79 1153.78 427.72C1154.58 428.84 1154.01 436.72 1154 438.5C1153.99 440.78 1153.37 442.39 1153.03 444.53C1152.34 448.98 1153.73 452.91 1152.81 457.31C1152.34 459.61 1150.4 461.35 1150.03 463.53C1149.64 465.84 1150.81 467.73 1150.5 470C1124.5 470 1098.5 470 1072.5 470C1066.17 470 1059.83 470 1053.5 470C1051.56 470 1047.41 470.8 1045.72 469.78C1044.01 468.75 1046.45 469.89 1045 468.5C1045.29 467.59 1044.79 466.89 1045.72 466.22C1047.37 465.04 1056.92 467 1059.5 467C1060.63 461.36 1058.82 456.21 1059 450.5C1059.1 447.43 1059.58 443.73 1060.19 440.69C1060.52 439 1061.94 437.25 1061.94 435.5C1061.94 433.75 1060.52 432 1060.19 430.31C1059.8 428.36 1059.38 420.6 1059.38 418.5C1059.38 413.41 1061.35 408.44 1061.97 403.47C1062.3 400.85 1060.39 398.94 1060.38 396.5C1060.35 393.45 1062.94 390.47 1062.94 387.5C1062.94 386.43 1062.2 385.52 1062.03 384.47C1061.42 380.76 1060.74 377.18 1060 373.5C1063.36 368.13 1059.85 366.21 1060 360.5C1060.07 357.93 1061.25 356.65 1061.81 354.31C1062.88 349.84 1062.58 342.75 1061 338.5C1057.97 337.89 1047.3 338.73 1045.72 337.78C1044.01 336.75 1046.45 337.89 1045 336.5C1046.24 332.57 1048.54 334 1052.5 334C1058.16 334 1063.85 334.18 1069.5 334C1071.4 333.94 1072.73 333.31 1074.53 333.03C1077.7 332.54 1081.3 333 1084.5 333C1091.83 333 1099.17 333 1106.5 333C1115.37 333 1124.67 333.8 1133.5 333C1138.18 332.57 1141.46 332 1146.5 332ZM810.98 365.07C808.52 374.77 803.6 383.83 801.3 393.68C796.67 413.49 795.6 432.88 799.07 452.94C796.74 454.51 795.51 457.17 792.97 458.47C790.74 459.61 788.14 460.02 786.03 461.53C783.63 463.24 781.58 465.92 779.5 468C777.3 468 764.01 468.59 762.72 469.22C761.94 469.6 761.07 471.3 760.5 472C754.67 469.09 747.98 470 741.5 470C730.17 470 718.83 470 707.5 470C704.25 470 692.23 471.04 690.03 469.47C689.24 468.9 689.4 468.26 689 467.5C692.65 464.66 700.25 467.65 706 466.5C705.39 464.93 704.25 463.14 704.03 461.47C703.56 457.88 705.57 454.36 704.97 450.53C704.27 446.04 703.3 441.23 704.03 436.53C704.44 433.94 706.22 431.79 706.81 429.31C707.32 427.17 707 424.69 707 422.5C707 419.95 707.3 417.2 706.81 414.69C705.68 408.81 703.04 403.85 704.03 397.53C704.66 393.51 707 389.64 707 385.5C707 381.93 705.06 378.04 705.06 374.5C705.06 372.75 706.48 371 706.81 369.31C707.53 365.7 706.56 362.61 705 359.5C708.55 352.39 706.46 345.78 705 338.5C702.07 337.91 691.35 338.95 689.72 337.78C688.79 337.11 689.29 336.41 689 335.5C690.45 334.11 688.01 335.25 689.72 334.22C691.7 333.03 702.63 334 705.5 334C711.91 334 719.15 334.96 725.47 333.97C731.77 332.98 741.98 331.68 748.31 333.19C750.13 333.62 751.89 335.19 753.5 336C758.03 334.32 758.81 336.94 763.5 334C765.77 334.45 768.31 334.88 770.34 336.16C773.14 337.91 775.19 340.22 778.69 340.81C780.98 341.2 783.18 340.15 785.5 340C790.72 343.27 789.78 342.56 792.5 348C794.33 348.5 796.17 349 798 349.5C798.67 351.17 799.33 352.83 800 354.5C803.65 355.29 806.38 358.02 807.81 361.69C808.25 362.8 807.7 363.92 808.72 364.78C809.2 365.19 810.39 365 810.98 365.07ZM343 334.5C342.41 343.28 332.35 336.34 327 340.5C328.48 342.86 331.89 346.34 332.81 348.69C334 351.71 334.01 355.22 335.19 358.31C335.79 359.9 337.32 361.16 337.81 362.69C339.27 367.18 337.72 372.78 339.19 377.31C340.18 380.37 343.82 382.63 344.81 385.69C345.39 387.48 344.75 389.48 345.19 391.31C346 394.71 348.33 397.65 349.81 400.69C351.78 404.72 352 409.1 352 413.5C353.65 415.15 356.06 417.44 356.81 419.69C358.26 424.03 358.32 429.69 361.5 433C363.75 428.5 367.65 423.19 368.81 418.31C369.32 416.17 369 413.69 369 411.5C375.23 408.24 371.87 405.23 373.19 399.69C374.04 396.14 377.8 393.82 378.81 390.31C380.88 383.13 379.11 381.39 385 375.5C385 367.36 385.35 365.15 391 359.5C389.31 354.95 391.58 355.99 391.97 352.47C392.11 351.21 391.26 350.44 391.22 349.34C391.15 347.52 391.98 345.48 392 343.5C389.73 341.65 381.01 339.59 380.22 338.28C379.78 337.55 380.25 337.29 380 336.5C380.23 335.77 379.8 335.4 380.22 334.72C381.23 333.09 386.79 334 388.5 334C397.36 334 407.37 332.77 416 334.5C415.92 341.96 411.65 341 405.5 341C403.22 343.28 401.43 344.87 400.5 348C393.37 349.43 394.89 356.59 393.97 362.47C393.51 365.4 391.99 367.89 391.19 370.69C390.52 373 390.57 375.83 389.47 377.97C388.81 379.26 387.02 380.48 386 381.5C386 384.17 386 386.83 386 389.5C384.45 390.83 382.91 392.17 381.36 393.5C381.36 395.17 381.36 396.83 381.36 398.5C377.43 405.34 374.08 404.89 376 414.5C372.39 417.43 370.02 419.75 369.19 424.69C368.91 426.33 369.73 427.22 369.78 428.66C369.94 432.99 366.74 437.45 363.18 439.5C363.18 442 363.18 444.5 363.18 447C361.79 448.17 360.39 449.33 359 450.5C359.02 452.1 359.7 454.04 359.63 455.5C359.45 459.1 354.62 461.74 353.5 465C352.67 467.43 352.7 469.61 351.5 472C350.78 470.56 349.56 468.88 349.19 467.31C348.33 463.71 349.18 460.27 347.81 456.69C347.02 454.6 344.86 453.26 344.19 451.31C343.42 449.08 343.97 447.13 342.47 445.03C339.98 441.55 337.24 438.71 336.19 434.31C335.75 432.48 336.39 430.48 335.81 428.69C335.21 426.82 333.19 425.02 332.16 423.34C329.33 418.74 333.04 418.52 327 415.5C328.33 408.85 328.82 403.07 322 399.5C322 394.98 322.6 389.59 319.84 385.66C318.84 384.22 316.91 383.93 316.19 382.31C313.52 376.29 316.95 376.45 311 370.5C311 365.91 310.47 364.31 307 361.5C307 358.83 307 356.17 307 353.5C305.93 352.63 304.44 351.98 303.53 350.97C300.27 347.35 299.39 341.71 296.5 338C294.42 338 287.22 338.68 285.72 337.78C284.01 336.75 286.45 337.89 285 336.5C285.29 335.59 284.79 334.89 285.72 334.22C286.98 333.32 296.43 334 298.5 334C308.17 334 317.83 334 327.5 334C332.61 334 338.04 333.51 343 334.5ZM640.5 336C642.44 337.94 644.4 339.33 646.5 341C651.34 344.84 654.35 349.68 660 352.5C661 356.17 662 359.83 663 363.5C661.88 365.5 660.75 367.5 659.63 369.5C659.63 372.83 659.63 376.17 659.63 379.5C653.6 383.4 649.91 390.13 643 392.5C636.21 394.83 630.05 393.8 624 398.5C626.43 400.39 629.62 400.45 632.34 402.16C634.01 403.2 635.83 405.21 637.69 405.81C639.42 406.37 641.7 406 643.5 406C644.53 407.27 648.31 412.4 648.81 413.69C649.41 415.23 648.99 416.92 650.19 418.31C651.34 419.65 653.19 420.69 654.5 422C654.5 426.31 654.31 431.87 655.03 436.47C655.45 439.17 656.55 441.83 656.97 444.53C657.47 447.74 656.06 450.56 656.06 453.5C656.06 458.14 659.47 460.97 662.5 464C667.79 463.65 671.67 459.89 676.5 458C677.54 463.48 672.15 467.35 668.5 471C667.29 470.92 665.61 470.32 664.5 470.38C662.18 470.49 660.57 473.27 658.31 473.81C656.47 474.25 654.38 474 652.5 474C648.77 469.41 647.4 469.5 642 469.5C638.98 466.36 638 463.84 638 459.5C636.33 458.5 634.67 457.5 633 456.5C633 449.44 633.86 442.66 630 436.5C630.55 433.73 632.91 430.47 632.78 427.66C632.61 423.77 628.86 420.49 627.5 417C626.09 413.4 625.07 406.35 621.28 404.22C620.42 403.74 618.97 403.83 618 403.5C614.37 402.25 612.32 401.58 608.5 403C602.31 399.12 594.08 399.08 587 400.5C584.19 406.39 587.92 412.37 586.97 418.47C586.69 420.27 585.79 421.53 586.03 423.47C586.21 424.92 587.07 425.93 586.97 427.47C586.67 431.96 584.28 435.64 585.03 440.47C585.5 443.47 586.82 446.45 587 449.5C587.11 451.45 586.31 452.72 586.03 454.53C585.49 458.01 586 461.98 586 465.5C589.22 466.14 600.6 465.21 602.28 466.22C603.99 467.25 601.55 466.11 603 467.5C602.71 468.41 603.21 469.11 602.28 469.78C601.08 470.64 592.44 470 590.5 470C580.17 470 569.83 470 559.5 470C557.42 470 550.22 470.68 548.72 469.78C547.01 468.75 549.45 469.89 548 468.5C548.29 467.59 547.79 466.89 548.72 466.22C550.39 465.03 553.08 466.5 554.69 466.81C557.96 467.44 561.81 467.14 565 466.5C561.33 459.15 565.63 455.61 565.63 448.5C565.63 443.12 563.04 437.72 562 432.5C565.87 426.33 562.43 424.46 562.03 418.47C561.93 416.94 562.74 415.91 562.97 414.47C563.27 412.52 562.82 410.46 563 408.5C563.71 400.67 566.2 390.38 564.97 382.53C564.45 379.22 562.34 375.66 562.22 372.34C562.14 370.11 563.62 367.68 563.97 365.47C564.75 360.5 562.98 353.38 562 348.5C563.61 345.27 564.96 343.33 565 339.5C560.36 335.89 552.35 339.96 548.72 337.78C547.01 336.75 549.45 337.89 548 336.5C548.29 335.59 547.79 334.89 548.72 334.22C549.87 333.39 553.13 334 554.5 334C560.01 334 565.01 335 570.5 335C575.95 335 582.09 334.19 587.47 335.03C592.68 335.85 598.07 336.49 603.5 336C605.51 335.82 607.54 334.39 609.5 334.38C612.38 334.35 615.44 335.28 618.5 335C619.86 334.88 621.19 334.06 622.5 334.06C623.57 334.06 624.47 334.8 625.53 334.97C627.8 335.32 630.2 334.68 632.47 335.03C635.26 335.47 637.55 336 640.5 336ZM215.5 335C212.49 335.6 206.46 337.8 203.69 339.19C202.42 339.82 201.66 341.4 200.31 341.81C198.63 342.32 196.6 341.5 195 341.5C194.21 343.62 193.84 346.09 192.47 347.97C190.75 350.32 187.81 351.08 186.16 353.66C182.61 359.19 182.48 365.95 179 371.5C180.94 375.56 180.07 378.43 177 381.5C177.9 383.91 179.3 386.85 178.97 389.47C178.64 392.1 176.85 394.78 177.03 397.47C177.17 399.53 178.65 401.48 178.97 403.53C179.58 407.43 178.42 411.57 179.03 415.47C179.2 416.56 179.9 417.43 179.97 418.53C180.15 421.19 178.18 423.73 178 426.5C181.24 429.88 180.85 432.24 180 436.5C185.27 439.26 184.47 443.87 185.5 449C187.93 451.33 190.03 452.69 191.84 455.66C193.17 457.82 192.94 459.99 194.5 462C197.43 463.09 200.12 464.83 202.69 465.81C203.53 466.13 204.47 465.87 205.31 466.19C206.25 466.54 206.73 467.5 207.69 467.81C211.1 468.92 214.32 467.06 217.5 467.06C219.25 467.06 220.54 468.22 222.47 467.97C224.05 467.76 225.19 466.56 226.69 466.19C228.08 465.84 229.61 465.78 231 465.5C233.5 460.51 237.72 459.5 241.97 456.47C245.23 454.14 246.12 450.83 248.16 447.66C249.48 445.59 252.04 443.69 252.81 441.31C253.9 437.96 253.19 432.7 252 429.5C252.9 428.6 254.4 427.56 254.81 426.31C256.33 421.75 254.9 414.98 254 410.5C257.27 405.29 256.6 398.69 254 393.5C255 391.5 256 389.5 257 387.5C255.67 386.17 254.33 384.83 253 383.5C253 379.17 253.82 373.9 252.81 369.69C252.53 368.49 251.47 367.51 251.19 366.31C250.67 364.14 251.33 361.86 250.81 359.69C250.15 356.9 242.51 347.39 239.97 345.53C237.67 343.85 234.82 341.44 232.31 340.19C231.1 339.58 228.74 339.66 227.72 338.78C226.93 338.1 226.36 336.86 225.5 336C221.64 337.43 218.94 337.16 215.5 335ZM1005.32 352C1005.29 348 1005.27 344 1005.24 340C1006.66 340.33 1008.08 340.67 1009.5 341C1010.79 340.19 1012.64 339.35 1013.47 337.97C1013.97 337.13 1013.82 335.76 1014.72 335.22C1015.45 334.78 1015.71 335.25 1016.5 335C1017.83 337.67 1019.63 341.49 1019.63 344.5C1019.63 348.37 1018.63 352.46 1019 356.5C1019.16 358.22 1020.08 359.74 1019.97 361.47C1019.87 362.95 1018.92 364.58 1018.5 366C1014.9 362.4 1010.33 353.61 1005.32 352ZM610.5 337.78C609.5 338.52 608.5 339.26 607.5 340C605.63 339.63 604.13 338.62 602.31 338.19C597.65 337.07 590.6 337.58 586 338.5C588.57 342.6 587.37 343.72 585 347.5C589.02 358.33 583.47 362.91 585.03 372.47C586.12 379.12 592.05 382.45 585 389.5C586.17 391.67 587.33 393.83 588.5 396C591.06 396 593.94 395.63 596.47 396.03C597.53 396.2 598.43 396.94 599.5 396.94C601.5 396.94 603.55 395.34 605.53 395.03C608.7 394.54 612.3 395 615.5 395C616.5 394 617.5 393 618.5 392C625.24 392 626.41 391.09 631 386.5C631 381.31 632.96 376.66 634.19 371.69C634.61 369.98 635.85 368.24 635.97 366.47C636.17 363.51 633.81 361.79 633.19 359.31C632.9 358.16 633.68 357.51 633.63 356.5C633.52 354.66 631.02 349.43 630.5 347C625.21 345.94 620.04 341.83 616.5 337.78C614.5 337.78 612.5 337.78 610.5 337.78ZM787.5 355C786.37 353.92 784.4 353.16 783.53 351.97C782 349.87 782.33 347.29 779.97 345.53C774.05 341.12 769.23 342.31 762.53 340.97C761.12 340.69 760.59 339.6 759.31 339.19C759.3 339.18 749.68 338.02 749.53 338.03C747.81 338.15 746.34 338.94 744.5 339C739.55 339.16 731.99 337.39 728 340.5C728.18 343.25 729.24 345.69 729 348.5C728.87 349.98 728.26 351.1 728.03 352.53C727.57 355.45 728.43 358.55 727.97 361.47C727.38 365.22 727 368.58 727 372.5C728 373.5 729 374.5 730 375.5C730 384.44 724.33 387.15 729 396.5C728.84 398.84 727.74 401.13 728.03 403.47C728.38 406.29 730.18 408.52 730 411.5C729.87 413.79 728.39 415.34 728.03 417.53C727.27 422.19 727.3 434.79 728.03 439.47C728.46 442.19 729.75 444.74 730 447.5C730.27 450.42 730.49 454.46 729.81 457.31C728.83 461.44 726.13 460.45 728 465.5C734.02 466.7 740.4 465.08 746.47 466.03C750.02 466.59 753.72 467.72 757.47 466.97C759.45 466.57 760.7 464.76 762.69 464.19C766.61 463.06 770.4 463 774.5 463C777.99 458.7 777.85 460.63 781.97 458.47C786.27 456.22 788 445.64 788 441.5C789.33 440.17 790.67 438.83 792 437.5C792 434.03 792.37 431.02 793.19 427.69C793.61 425.98 794.85 424.24 794.97 422.47C795.12 420.26 793.6 418.39 793.19 416.31C792.63 413.51 793 410.35 793 407.5C794.33 405.83 795.67 404.17 797 402.5C796.81 399.59 795.47 397.28 795.03 394.47C794.62 391.87 795.38 389.13 794.97 386.53C794.6 384.15 793.4 381.85 793.03 379.47C792.59 376.66 793.7 373.42 792.81 370.69C792.12 368.54 790.04 366.55 789.19 364.31C788.02 361.25 788.13 358.14 787.5 355ZM999.3 391C1001.83 392.58 1004.57 393.78 1006.97 395.53C1008.88 396.93 1010.41 400.05 1012.69 400.81C1014.13 401.29 1016 401 1017.5 401C1017.83 402.65 1017.66 404.73 1018.19 406.31C1018.87 408.35 1021.2 408.63 1022.47 410.03C1024.04 411.78 1023.77 414.49 1025.19 416.31C1026.07 417.45 1027.17 418.23 1028 419.5C1028 423.48 1028.89 427.48 1026 430.5C1026.14 432.58 1027 434.47 1027 436.5C1027 438.61 1025.66 439.77 1025.19 441.69C1024.89 442.89 1025.11 444.11 1024.81 445.31C1024.45 446.79 1023.31 447.82 1022.53 449.03C1020.47 452.24 1020 455.79 1020 459.5C1016.4 463.1 1013.75 462.87 1010.03 465.53C1007.63 467.24 1005.58 469.92 1003.5 472C997.06 472 989.07 470.5 983.5 474C979.26 472.43 975.43 471.47 971.5 469C968.68 469.29 965.86 469.58 963.04 469.88C964.61 467.58 966.18 465.29 967.75 463C970.67 465 973.58 467 976.5 469C980.93 467.35 984.91 467.68 989.47 466.97C991.85 466.6 994.15 465.4 996.53 465.03C998.44 464.73 1000.41 465.27 1002.31 464.81C1005.44 464.07 1013.44 456.06 1016 453.5C1016 451.26 1015.68 448.75 1016.03 446.53C1016.2 445.44 1016.9 444.57 1016.97 443.47C1017.07 441.94 1016.26 440.91 1016.03 439.47C1015.63 436.94 1016 434.06 1016 431.5C1011.14 428.96 1009.8 423.06 1006.5 419C1000.26 419 996.69 416.47 991.09 416C993.83 407.67 996.57 399.33 999.3 391ZM955.16 455.97C953.43 458.35 951.69 460.72 949.95 463.1C942.03 462.77 942.92 463.39 940 469.5C937.24 469.5 935.91 469.34 934 467.5C937.19 462.42 933.7 462.56 934 457.5C934.09 456 934.74 454.91 934.97 453.47C935.88 447.62 934.89 442.18 937 436.5C933.68 433.18 932.59 429.17 936.5 426C937.49 427.99 937.65 430.03 938.53 431.97C940 435.19 943.16 437.65 944.5 441C945.53 443.57 945.86 446.68 947.53 448.97C949.49 451.66 952.99 453.22 955.16 455.97Z" fill="#ffffff" fill-rule="evenodd" stroke="#ffffff" stroke-width="0.25" stroke-linejoin="round"/>
<path d="M949.95 463.1C951.69 460.72 953.43 458.35 955.16 455.97C957.97 453.54 959.69 449.33 961.61 446.12C966.4 438.14 976.18 421.12 977.14 412.31C980.92 406.48 984 395.16 985.08 388.21C987.1 384.44 987.76 379.21 988.48 374.9C990.09 365.15 993.26 349.33 990 340C989.66 338 989.32 336 988.98 334C988.79 325.31 982.67 320.87 980.78 313.5C983.95 304.44 991.76 306.1 997.16 312.32C1003.55 319.68 1004.37 330.78 1005.24 340C1005.27 344 1005.29 348 1005.32 352C1004.39 359.43 1003.89 366.84 1002.6 374.26C1001.64 379.81 999.68 385.41 999.3 391C996.57 399.33 993.83 407.67 991.09 416C987.09 423.09 984.29 432.41 980.52 440.02C976.66 447.81 971.12 455.07 967.75 463C966.18 465.29 964.61 467.58 963.04 469.88C958 474.53 954.33 481.06 949.68 486.2C939.56 497.37 927.81 507.07 914.17 513.62C879.12 530.44 835.29 515.04 813 484.47C808.38 478.13 804.58 470.91 802.15 463.42C801.04 459.99 800.47 456.19 799.07 452.94C795.6 432.88 796.67 413.49 801.3 393.68C803.6 383.83 808.52 374.77 810.98 365.07C814.2 361.07 815.92 355.39 818.34 350.8C821.86 344.13 825.85 337.75 829.95 331.42C847.68 304.02 879 275.11 911.8 268.44C929.66 264.8 952.69 266.49 966.28 280.21C974.33 288.34 977.85 301.06 970.18 310.7C967.78 313.72 965.29 315.6 961.5 316.13C959.16 314.5 958.56 313.28 957.92 310.5C959.72 307.02 961.88 303.97 962.48 299.96C964.29 287.77 953.56 278.81 942.47 277.23C930.59 275.54 918.37 280.59 908.69 287.17C867.75 314.97 838.17 370 828 417.5C822.75 441.99 821.95 474.21 841.36 493.15C869.61 520.72 905.16 508.79 930.93 485.44C936.82 480.11 947.35 470.53 949.95 463.1ZM636.33 532.5C636.38 533.64 636.44 534.78 636.5 535.93C633.39 534.98 632.75 533.39 636.33 532.5ZM474.5 547.89C476.79 546.13 478.82 544.1 481.72 543.34C487.82 541.76 498.24 542.54 500.75 549.71C501.81 552.74 501.45 556.34 501.42 559.5C501.39 562.9 501.6 565.98 500.5 569.1C495.35 562.5 504.65 549.89 492.83 545.61C491.44 545.11 489.98 544.81 488.5 544.72C486.84 544.62 485.16 544.79 483.54 545.13C471.26 547.73 477.4 560.75 474.5 569.08C470.58 564.63 474.63 555.89 472.36 550.17C469.19 542.22 452.2 542.74 449.24 550.71C447.14 556.35 450.81 564.3 447.5 569.08C445.45 565.69 445.69 547.43 447.14 543.5C447.62 544.19 447.97 546.28 448.77 546.73C449.92 547.4 451.53 545.45 452.38 544.91C454.88 543.33 457.56 542.81 460.5 542.74C466.67 542.6 469.7 544.81 474.5 547.89ZM519.79 543.42C526.24 541.88 534.09 542.2 539.88 545.61C545.92 549.17 549.12 556.86 544.45 562.93C537.34 572.2 519.2 572.62 511.26 564.25C503.51 556.09 510.38 545.68 519.79 543.42ZM553.5 543.2C554.22 544.1 554.77 547.03 555.53 547.41C556.58 547.94 559.19 545.08 560.08 544.6C562.19 543.46 570.4 541.55 572.24 543.1C573.56 544.22 571.6 543.03 572.5 544.42C570.17 544.59 567.84 544.45 565.5 544.87C549.62 547.74 559.38 560.46 554.5 569.1C553.3 567.61 554.2 569.86 553.35 568.24C552.5 566.6 553.13 563.31 553.12 561.5C553.08 555.51 552.47 549.08 553.5 543.2ZM615.15 556.95C603.19 556.95 591.23 556.95 579.27 556.95C580.25 568.37 595.75 568.97 604.48 566.94C607.37 566.27 609.79 564.39 612.69 564.5C610.48 567.78 606.46 568.63 602.66 569.32C592.99 571.09 573.62 568.21 576.49 553.95C579.75 537.76 613.72 538.5 615.15 556.95ZM635.5 542.99C637.18 544.97 636.89 546.71 636.89 549.5C636.88 552.52 637.63 566.41 636.66 568.24C635.82 569.84 636.69 567.64 635.5 569.1C634.16 566.98 634.44 565.15 634.45 562.5C634.48 557.52 632.99 546.79 635.5 542.99ZM667.56 545.5C661.05 545.69 649.79 541.26 646.47 549.5C649.95 559 667.49 551.15 669.71 563.5C665.61 571.49 647.66 572.13 643.13 565.5C650.65 566.13 661.57 572 667.01 563.5C664.91 552.5 645.62 560.76 644.17 548.5C647.26 542.41 654.4 542.42 660.5 542.75C663.88 542.93 666.48 542.26 667.56 545.5ZM689.5 543.35C689.9 544.38 690.25 546.68 691.53 546.91C693.14 547.19 696.06 543.92 697.78 543.4C705 541.22 711.16 543.38 716.5 548.03C718.34 546.94 719.82 545.3 721.77 544.32C727.87 541.27 739.17 541.97 742.69 548.78C744.37 552.03 743.89 555.98 743.88 559.5C743.88 562.96 744.53 566.57 742.5 569.14C738.65 563.5 744.45 553.7 739.29 548.2C734.49 543.08 720.81 542.85 718.26 550.69C716.43 556.29 720.04 564.62 716.5 569.08C713.27 563.84 717.09 555.79 714.57 549.89C711.33 542.27 696.05 543.08 692.21 549.74C689.1 555.15 692.24 563.26 690.5 569.05C689.06 567.58 690.28 570.03 689.19 568.29C688.22 566.76 688.88 563.25 688.88 561.5C688.88 555.63 688.11 549.04 689.5 543.35ZM762.69 543.35C771.45 541.45 787.35 543.11 788.9 554.52C789.25 557.12 788.95 559.77 787.5 562.01C780.63 572.54 760.88 572.79 753.02 563.48C745.85 554.99 753.56 545.33 762.69 543.35ZM798.5 547.95C802.29 544.29 806.11 542.64 811.5 542.77C812.26 542.79 813.63 542.53 814.29 543.07C815.75 544.27 813.58 542.96 814.62 544.5C808.06 544.49 799.18 545.36 798.05 553.5C797.59 556.79 799.16 565.95 797.79 568.28C796.79 569.99 797.84 567.64 796.5 569.11C794.2 564.89 794.95 548.43 796.36 543.5C797.07 544.98 797.79 546.47 798.5 547.95ZM857.5 556.48C850.46 558.22 839.95 557.03 832.5 556.95C828.6 556.91 824.7 556.17 821.5 558.25C823.37 568.9 839.5 568.79 847.44 566.8C850.24 566.1 852.39 564.53 855.17 564.5C847.41 574.54 816.29 571.24 818.84 554.5C821.36 537.96 856.88 538.44 857.5 556.48ZM612.23 554.5C609.63 540.9 581.88 540.94 579.19 554.5C584.34 556.03 606.81 555.77 612.23 554.5ZM768.78 544.49C760.47 544.94 748.67 550.48 753.65 560.84C758.02 569.93 774.21 569.49 781.39 564.93C794.96 556.31 781.43 543.81 768.78 544.49ZM521.63 545.27C514.27 546.86 506.07 554.47 512.32 562.2C518.89 570.33 536.02 570.13 542.38 561.87C543.83 559.99 544.34 557.85 544.16 555.5C543.4 545.29 529.3 543.61 521.63 545.27ZM854.83 554.5C851.85 541.36 823.74 541.21 821.5 553.98C824.82 555.89 828.63 555.26 832.5 555.19C839.62 555.07 848.02 556.42 854.83 554.5ZM430.46 557.5C430.01 557.78 429.82 558.42 429.33 558.63C427.57 559.37 424.39 558.72 422.5 558.72C417.17 558.72 411.83 558.74 406.5 558.74C386.83 558.76 367.17 558.74 347.5 558.74C282.5 558.73 217.5 558.75 152.5 558.76C134.5 558.76 116.5 558.78 98.5 558.75C92.41 558.74 80.48 560.18 75.5 557.54C78.07 556.2 81.63 556.85 84.5 556.82C90.5 556.77 96.5 556.71 102.5 556.7C124.5 556.65 146.5 556.6 168.5 556.64C226.83 556.76 285.17 556.77 343.5 556.67C362.5 556.63 381.5 556.66 400.5 556.68C410.04 556.69 421.28 555.26 430.46 557.5ZM1227.27 557.5C1223.09 560.1 1211.02 558.71 1205.5 558.72C1187.83 558.73 1170.17 558.72 1152.5 558.72C1086.17 558.75 1019.83 558.74 953.5 558.74C933.83 558.74 914.17 558.76 894.5 558.73C889.54 558.72 875.74 560.12 872.29 557.5C879.01 555.44 898.4 556.7 906.5 556.69C930.83 556.67 955.17 556.68 979.5 556.68C1035.83 556.7 1092.17 556.7 1148.5 556.7C1165.83 556.7 1183.17 556.71 1200.5 556.72C1208.97 556.72 1219.18 555.35 1227.27 557.5Z" fill="#a2764f" fill-rule="evenodd" stroke="#a2764f" stroke-width="0.25" stroke-linejoin="round"/>
</svg>